<svg width="192" height="40" viewBox="0 0 192 40" fill="none" xmlns="http://www.w3.org/2000/svg">
<g id="&#235;&#161;&#156;&#234;&#179;&#160;">
<g id="graphic">
<path id="Fill 1" fill-rule="evenodd" clip-rule="evenodd" d="M18.6905 0L1.68658 9.61656L10.5994 14.6941L18.6894 10.1178L26.7244 14.6941L35.685 9.61188L18.6905 0Z" fill="#12C39C"/>
<path id="Fill 2" fill-rule="evenodd" clip-rule="evenodd" d="M0.800049 30.355L17.736 39.932V29.8154L9.7451 25.2961V16.2392L0.800049 11.1431V30.355Z" fill="#5F2CF5"/>
<path id="Fill 3" fill-rule="evenodd" clip-rule="evenodd" d="M27.6352 16.1986V25.2941L19.525 29.8822V39.9999L36.5803 30.353V11.1257L27.6352 16.1986Z" fill="#228AE6"/>
</g>
<g id="Group 5837">
<mask id="mask0_1255_9037" style="mask-type:luminance" maskUnits="userSpaceOnUse" x="44" y="8" width="148" height="24">
<path id="Clip 5" fill-rule="evenodd" clip-rule="evenodd" d="M44.6059 8.80005H191.2V31.7965H44.6059V8.80005Z" fill="white"/>
</mask>
<g mask="url(#mask0_1255_9037)">
<path id="Fill 4" fill-rule="evenodd" clip-rule="evenodd" d="M181.81 31.8668V22.8624L191.138 8.87037H187.14L180.033 19.6489L173.028 8.87037H168.859L178.256 22.8624V31.8668H181.81ZM157.863 20.7194H151.917V12.0162H157.863C161.246 12.0162 163.535 13.6564 163.535 16.3678C163.535 19.0792 161.24 20.7194 157.857 20.7194H157.863ZM151.916 31.8668V23.8666H157.315L163.05 31.8668H167.014L161.034 23.5319C164.594 22.6281 167.048 19.9167 167.048 16.3685C167.048 11.9834 163.29 8.87037 158.335 8.87037H148.459V31.8668H151.916ZM144.128 31.8668V28.7203H130.352V21.7243H142.79V18.5778H130.352V12.0225H144.122V8.87037H126.866V31.8668H144.128ZM104.384 31.8668V14.4326L117.881 31.8668H121.333V8.87037H117.876V26.3046L104.378 8.87037H100.927V31.8668H104.384ZM91.9057 31.8668H95.3626V8.87037H91.9057V31.8668ZM74.2757 31.8668V21.8582H86.714V18.7117H74.2757V12.0169H88.0466V8.87037H70.7902V31.8668H74.2757ZM54.0129 26.6783H50.3908V14.0587H54.0129C58.011 14.0587 60.8813 16.6696 60.8813 20.3517C60.8813 24.0338 58.011 26.6783 54.0129 26.6783ZM53.1221 31.8668C61.1864 31.8668 66.8588 27.0801 66.8588 20.3519C66.8588 13.6236 61.1921 8.87036 53.1221 8.87036H44.5451V31.8668H53.1221Z" fill="black"/>
</g>
</g>
</g>
</svg>
